<?xml version="1.0" encoding="utf-8" ?><svg xmlns="http://www.w3.org/2000/svg" xmlns:xlink="http://www.w3.org/1999/xlink" width="864" height="691" viewBox="0 0 864 691"><path fill="#0079FB" transform="scale(1.35 1.34961)" d="M187.358 186.344C172.883 233.507 115.298 249.168 79.565 213.705C40.8406 175.274 71.0089 107.19 122.401 107.355C131.469 105.164 148.002 110.136 155.989 114.559C173.752 124.394 181.978 138.44 187.358 157.433L232.206 157.444C291.527 158.009 342.008 199.626 349.835 258.855C351.156 268.853 350.921 278.894 350.912 288.951L350.902 318.272C402.852 333.654 405.086 407.047 354.305 423.353C324.49 432.927 292.838 417.537 283.17 387.529L282.917 386.671C274.47 357.403 292.704 326.627 321.612 318.272L321.643 288.188C321.655 281.254 321.914 274.245 321.288 267.332C317.562 226.148 285.032 191.309 243.601 186.886C235.691 186.042 227.655 186.331 219.711 186.331L187.358 186.344ZM121.816 136.836C103.555 139.054 90.5519 155.664 92.7785 173.929C95.005 192.193 111.617 205.191 129.876 202.955C148.123 200.72 161.106 184.118 158.881 165.866C156.656 147.614 140.064 134.619 121.816 136.836Z"/><path fill="#0079FB" transform="scale(1.35 1.34961)" d="M452.913 157.433C452.519 129.844 488.118 108.548 513.486 107.355C556.16 107.841 588.163 146.171 575.589 188.237C559.325 242.647 484.461 248.78 457.42 197.891C455.721 194.125 454.005 190.339 452.913 186.344L397.528 186.348C389.976 186.349 376.648 187.034 369.664 185.925C358.572 184.163 354.36 169.866 362.23 161.842C367.596 156.371 375.07 157.316 382.039 157.404L452.913 157.433ZM512.37 136.274C493.643 137.364 479.384 153.498 480.601 172.222C481.818 190.947 498.046 205.099 516.757 203.754C535.289 202.422 549.272 186.38 548.067 167.835C546.861 149.29 530.918 135.194 512.37 136.274Z"/></svg>